<svg data-v-fde0c5aa="" xmlns="http://www.w3.org/2000/svg" viewBox="0 0 300 300" class="iconLeft"><!----><defs data-v-fde0c5aa=""><!----></defs><rect data-v-fde0c5aa="" fill="#FDF7EC" x="0" y="0" width="300px" height="300px" class="logo-background-square"></rect><defs data-v-fde0c5aa=""><!----></defs><g data-v-fde0c5aa="" id="370e3bdf-3760-402b-bc2a-88af7561553b" fill="#342103" transform="matrix(4.26877342123262,0,0,4.26877342123262,109.09885799462876,115.2308395477258)"><path d="M3.27 3.60L3.27 3.60L3.27 3.60Q2.65 3.74 2.13 4.17L2.13 4.17L2.13 4.17Q1.61 4.59 1.24 5.07L1.24 5.07L1.24 5.07Q0.88 5.54 0.86 6.29L0.86 6.29L0.86 6.29Q0.84 7.04 1.35 7.59L1.35 7.59L1.35 7.59Q1.85 8.14 3.29 8.56L3.29 8.56L3.29 8.56Q4.72 8.98 5.12 9.73L5.12 9.73L5.12 9.73Q5.52 10.49 5.05 11.05L5.05 11.05L5.05 11.05Q4.57 11.60 3.77 11.64L3.77 11.64L3.77 11.64Q2.96 11.68 2.28 11.15L2.28 11.15L2.28 11.15Q1.59 10.62 1.40 9.95L1.40 9.95L1.40 9.95Q1.21 9.27 1.23 8.95L1.23 8.95L0.17 9.98L0.17 9.98Q0.03 10.52 0.50 11.21L0.50 11.21L0.50 11.21Q0.96 11.91 1.79 12.37L1.79 12.37L1.79 12.37Q2.62 12.84 3.62 12.71L3.62 12.71L3.62 12.71Q4.61 12.59 5.50 11.34L5.50 11.34L5.50 11.34Q6.39 10.09 6.37 9.38L6.37 9.38L6.37 9.38Q6.36 8.66 5.83 8.12L5.83 8.12L5.83 8.12Q5.30 7.58 3.77 7.17L3.77 7.17L3.77 7.17Q2.23 6.76 2.08 5.92L2.08 5.92L2.08 5.92Q1.93 5.08 2.55 4.85L2.55 4.85L2.55 4.85Q3.17 4.61 3.96 4.96L3.96 4.96L3.96 4.96Q4.76 5.30 4.79 5.68L4.79 5.68L5.73 4.92L5.73 4.92Q5.56 4.22 4.72 3.84L4.72 3.84L4.72 3.84Q3.89 3.46 3.27 3.60ZM9.16 4.44L7.92 4.94L7.92 6.84L7.63 6.84L6.48 7.86L7.92 7.86L7.84 10.19L7.84 10.19Q7.85 11.87 8.73 12.42L8.73 12.42L8.73 12.42Q9.60 12.97 10.50 12.56L10.50 12.56L10.50 12.56Q11.39 12.15 11.71 11.09L11.71 11.09L11.61 10.93L11.61 10.93Q10.72 12.06 9.84 11.64L9.84 11.64L9.84 11.64Q8.97 11.22 9.12 9.78L9.12 9.78L9.17 7.85L10.01 7.85L12.08 6.79L9.15 6.79L9.16 4.44ZM15.51 6.48L15.51 6.48L15.51 6.48Q14.40 6.51 13.69 7.03L13.69 7.03L13.69 7.03Q12.98 7.55 12.66 8.19L12.66 8.19L12.66 8.19Q12.34 8.84 12.31 9.76L12.31 9.76L12.31 9.76Q12.29 10.68 12.98 11.62L12.98 11.62L12.98 11.62Q13.67 12.56 14.68 12.71L14.68 12.71L14.68 12.71Q15.69 12.85 16.55 12.33L16.55 12.33L16.55 12.33Q17.40 11.80 17.84 11.12L17.84 11.12L17.84 11.12Q18.28 10.45 18.30 9.35L18.30 9.35L18.30 9.35Q18.31 8.26 17.47 7.36L17.47 7.36L17.47 7.36Q16.63 6.46 15.51 6.48ZM15.21 7.44L15.21 7.44L15.21 7.44Q16.26 7.82 16.68 8.91L16.68 8.91L16.68 8.91Q17.11 9.99 17.06 10.67L17.06 10.67L17.06 10.67Q17.00 11.34 16.43 11.71L16.43 11.71L16.43 11.71Q15.86 12.08 14.91 11.56L14.91 11.56L14.91 11.56Q13.97 11.05 13.66 9.91L13.66 9.91L13.66 9.91Q13.36 8.77 13.76 7.92L13.76 7.92L13.76 7.92Q14.17 7.07 15.21 7.44ZM20.41 6.51L19.14 7.03L19.14 12.73L20.47 12.12L20.47 8.05L20.47 8.05Q21.11 7.22 21.70 7.37L21.70 7.37L21.70 7.37Q22.29 7.53 22.36 8.26L22.36 8.26L23.59 7.46L23.59 7.46Q23.45 6.62 22.44 6.50L22.44 6.50L22.44 6.50Q21.42 6.38 20.41 7.73L20.41 7.73L20.41 6.51ZM27.20 6.51L27.20 6.51L27.20 6.51Q26.12 6.35 25.18 7.19L25.18 7.19L25.18 7.19Q24.24 8.03 23.98 9.15L23.98 9.15L23.98 9.15Q23.71 10.27 24.06 11.09L24.06 11.09L24.06 11.09Q24.41 11.91 24.99 12.28L24.99 12.28L24.99 12.28Q25.57 12.66 26.37 12.71L26.37 12.71L26.37 12.71Q27.16 12.76 27.93 12.08L27.93 12.08L27.93 12.08Q28.70 11.41 29.16 10.54L29.16 10.54L29.06 10.47L29.06 10.47Q28.01 11.57 26.93 11.52L26.93 11.52L26.93 11.52Q25.85 11.47 25.51 10.85L25.51 10.85L27.45 9.78L27.45 9.78Q28.90 8.81 28.59 7.75L28.59 7.75L28.59 7.75Q28.29 6.68 27.20 6.51ZM24.99 8.16L24.99 8.16L24.99 8.16Q25.22 7.66 25.84 7.40L25.84 7.40L25.84 7.40Q26.45 7.14 27.00 7.68L27.00 7.68L27.00 7.68Q27.54 8.21 27.37 8.90L27.37 8.90L27.37 8.90Q27.21 9.60 25.30 10.57L25.30 10.57L25.30 10.57Q24.99 10.04 24.87 9.35L24.87 9.35L24.87 9.35Q24.75 8.67 24.99 8.16ZM29.46 4.40L31.79 8.37L29.47 12.27L29.88 12.73L32.13 8.91L34.25 12.76L35.35 11.66L33.04 7.54L35.24 3.88L34.82 3.58L32.70 7.05L30.67 3.53L29.46 4.40Z"></path></g><defs data-v-fde0c5aa=""><linearGradient data-v-fde0c5aa="" gradientTransform="rotate(25)" id="8bd5dfdc-69e7-48c0-b5bf-7d2c8fdb6a4b" x1="0%" y1="0%" x2="100%" y2="0%"><stop data-v-fde0c5aa="" offset="0%" stop-color="#E56500" stop-opacity="1"></stop><stop data-v-fde0c5aa="" offset="100%" stop-color="#EBC51D" stop-opacity="1"></stop></linearGradient></defs><g data-v-fde0c5aa="" id="2699ff63-3771-4f37-af66-b33505ba31c7" stroke="none" fill="url(#8bd5dfdc-69e7-48c0-b5bf-7d2c8fdb6a4b)" transform="matrix(0.7314501799588378,0,0,0.7314501799588378,31.734613524517336,113.42749239718862)"><path d="M81.9 47.2V22.9H32.3V9.6h-21V17h13.6v47.1h63.6v-7.4H32.3v-9.6h49.6zM32.3 29.1h42.9v12H32.3v-12zM35.9 68c-6.2 0-11.2 5-11.2 11.2 0 6.2 5 11.2 11.2 11.2s11.2-5 11.2-11.2c0-6.2-5-11.2-11.2-11.2zm0 14.5c-1.8 0-3.3-1.5-3.3-3.3 0-1.8 1.5-3.3 3.3-3.3s3.3 1.5 3.3 3.3c0 1.8-1.5 3.3-3.3 3.3zM77.6 68c-6.2 0-11.2 5-11.2 11.2 0 6.2 5 11.2 11.2 11.2 6.2 0 11.2-5 11.2-11.2 0-6.2-5-11.2-11.2-11.2zm0 14.5c-1.8 0-3.3-1.5-3.3-3.3 0-1.8 1.5-3.3 3.3-3.3 1.8 0 3.3 1.5 3.3 3.3 0 1.8-1.5 3.3-3.3 3.3z"></path></g><!----></svg>